<svg xmlns="http://www.w3.org/2000/svg" viewBox="0 0 512 512" fill="none" role="img" aria-label="Rumin">
  <defs>
    <linearGradient id="rumin-grad" x1="96" y1="96" x2="416" y2="416" gradientUnits="userSpaceOnUse">
      <stop stop-color="#ddb7ff"/>
      <stop stop-color="#b76dff"/>
    </linearGradient>
    <linearGradient id="rumin-bg" x1="0" y1="0" x2="512" y2="512" gradientUnits="userSpaceOnUse">
      <stop stop-color="#131b2e"/>
      <stop stop-color="#0b1326"/>
    </linearGradient>
    <filter id="rumin-glow" x="-20%" y="-20%" width="140%" height="140%">
      <feGaussianBlur stdDeviation="6" result="blur"/>
      <feMerge>
        <feMergeNode in="blur"/>
        <feMergeNode in="SourceGraphic"/>
      </feMerge>
    </filter>
  </defs>
  <rect width="512" height="512" rx="112" fill="url(#rumin-bg)"/>
  <rect x="8" y="8" width="496" height="496" rx="104" stroke="#4d4354" stroke-width="4"/>
  <rect x="24" y="24" width="464" height="464" rx="92" stroke="#ddb7ff" stroke-opacity="0.18" stroke-width="2"/>
  <path
    d="M148 132h108c58 0 94 31 94 78 0 34-18 60-46 74l66 110h-78l-58-96h-40v96H148V132zm100 142c28 0 46-15 46-40s-18-40-46-40h-52v80h52z"
    fill="url(#rumin-grad)"
    filter="url(#rumin-glow)"
  />
  <circle cx="372" cy="148" r="22" fill="#4cd7f6"/>
  <circle cx="372" cy="148" r="22" fill="#4cd7f6" fill-opacity="0.35"/>
</svg>
