<svg xmlns="http://www.w3.org/2000/svg" viewBox="0 0 720 160" fill="none" role="img" aria-label="Rumin">
  <defs>
    <linearGradient id="rumin-grad" x1="24" y1="24" x2="136" y2="136" gradientUnits="userSpaceOnUse">
      <stop stop-color="#ddb7ff"/>
      <stop stop-color="#b76dff"/>
    </linearGradient>
    <linearGradient id="rumin-bg" x1="0" y1="0" x2="160" y2="160" gradientUnits="userSpaceOnUse">
      <stop stop-color="#131b2e"/>
      <stop stop-color="#0b1326"/>
    </linearGradient>
    <linearGradient id="rumin-word" x1="176" y1="32" x2="704" y2="128" gradientUnits="userSpaceOnUse">
      <stop stop-color="#f3e8ff"/>
      <stop stop-color="#ddb7ff"/>
    </linearGradient>
    <filter id="rumin-glow" x="-20%" y="-20%" width="140%" height="140%">
      <feGaussianBlur stdDeviation="3" result="blur"/>
      <feMerge>
        <feMergeNode in="blur"/>
        <feMergeNode in="SourceGraphic"/>
      </feMerge>
    </filter>
  </defs>
  <g transform="translate(0 0)">
    <rect width="160" height="160" rx="36" fill="url(#rumin-bg)"/>
    <rect x="2" y="2" width="156" height="156" rx="34" stroke="#4d4354" stroke-width="3"/>
    <path
      d="M46 41h34c18 0 30 10 30 25 0 11-6 19-15 23l21 35h-25l-18-31h-13v31H46V41zm32 45c9 0 15-5 15-13s-6-13-15-13H58v26h20z"
      fill="url(#rumin-grad)"
      filter="url(#rumin-glow)"
    />
    <circle cx="117" cy="46" r="7" fill="#4cd7f6"/>
  </g>
  <text
    x="184"
    y="112"
    fill="url(#rumin-word)"
    font-family="ui-sans-serif, system-ui, -apple-system, 'Segoe UI', sans-serif"
    font-size="88"
    font-weight="800"
    letter-spacing="6"
  >RUMIN</text>
</svg>
